<svg xmlns="http://www.w3.org/2000/svg" viewBox="0 0 6350.7 2595.2" width="6350.7" height="2595.2" role="img" aria-label="firn"><title>firn</title><path fill="#6E98B2" transform="translate(251.1 251.1) scale(20.9289)" d="M14.03,35.86 L15.01,37.02 L15.69,38.02 L16.88,39.30 L17.59,40.22 L18.98,41.59 L19.89,42.62 L21.10,43.68 L22.18,44.77 L23.09,45.48 L24.45,46.71 L25.64,47.58 L26.99,48.72 L27.53,49.26 L28.00,49.86 L28.39,50.52 L28.69,51.23 L28.90,51.96 L29.03,53.10 L28.99,53.86 L28.76,54.98 L28.48,55.70 L27.91,56.69 L25.63,59.74 L24.85,60.99 L24.26,61.78 L23.38,63.29 L22.67,64.34 L22.00,65.66 L21.22,66.95 L20.59,68.36 L20.03,69.37 L19.68,70.24 L19.45,71.14 L19.33,72.34 L19.45,73.73 L19.74,74.82 L20.34,76.09 L21.17,77.21 L22.05,78.03 L22.98,78.66 L24.08,79.16 L25.44,79.49 L26.83,79.56 L28.21,79.35 L29.53,78.87 L30.34,78.42 L31.23,77.73 L31.76,77.21 L32.60,76.21 L34.11,74.65 L35.51,73.34 L37.08,71.99 L38.30,71.08 L39.32,70.53 L40.42,70.19 L41.18,70.08 L41.95,70.08 L43.09,70.25 L44.17,70.64 L44.84,71.01 L45.46,71.47 L46.26,72.29 L46.71,72.92 L47.07,73.60 L47.43,74.69 L47.80,76.91 L48.04,79.01 L48.23,81.24 L48.25,82.29 L48.38,83.21 L48.57,83.93 L48.92,84.79 L49.23,85.37 L49.76,86.14 L50.58,87.02 L51.31,87.60 L52.29,88.16 L53.16,88.51 L54.06,88.74 L55.26,88.85 L56.38,88.78 L57.29,88.59 L58.17,88.27 L59.00,87.85 L59.62,87.44 L60.33,86.84 L60.95,86.14 L61.34,85.61 L61.79,84.79 L62.07,84.11 L62.41,82.75 L63.09,77.88 L63.49,72.69 L63.52,71.02 L63.68,69.62 L63.87,68.88 L64.34,67.84 L65.00,66.90 L65.53,66.35 L66.13,65.87 L67.13,65.31 L68.22,64.95 L69.36,64.81 L70.12,64.84 L71.35,65.00 L74.71,65.58 L79.09,66.16 L80.26,66.20 L81.36,66.05 L82.23,65.81 L82.90,65.53 L83.69,65.09 L84.42,64.54 L85.07,63.91 L85.64,63.20 L86.10,62.41 L86.46,61.58 L86.71,60.70 L86.84,59.80 L86.86,58.89 L86.75,57.99 L86.53,57.10 L86.19,56.26 L85.75,55.46 L85.20,54.73 L84.42,53.95 L83.30,53.17 L78.25,50.80 L74.64,48.94 L73.84,48.45 L72.97,47.69 L72.27,46.79 L71.90,46.12 L71.62,45.40 L71.38,44.28 L71.34,43.52 L71.40,42.76 L71.67,41.64 L72.15,40.60 L73.10,39.27 L74.67,37.49 L75.99,36.14 L77.77,34.49 L79.46,33.12 L80.90,32.08 L82.21,31.28 L82.95,30.67 L83.70,29.79 L84.34,28.60 L84.69,27.30 L84.74,26.14 L84.57,25.00 L84.18,23.91 L83.59,22.92 L82.81,22.06 L81.89,21.38 L80.84,20.88 L79.53,20.58 L78.37,20.56 L77.61,20.67 L76.49,21.00 L74.70,21.35 L73.29,21.83 L72.02,22.15 L70.65,22.69 L69.19,23.16 L68.11,23.67 L66.41,24.33 L65.44,24.86 L63.97,25.50 L62.71,26.23 L61.62,26.71 L60.86,26.94 L60.07,27.06 L59.28,27.08 L58.49,26.99 L57.34,26.66 L56.28,26.11 L55.35,25.36 L54.82,24.77 L54.21,23.81 L53.57,22.47 L52.39,20.30 L51.03,18.02 L49.59,15.81 L48.96,15.08 L48.47,14.62 L47.86,14.15 L47.03,13.66 L46.15,13.28 L45.50,13.08 L44.55,12.90 L43.78,12.85 L42.82,12.90 L42.15,13.01 L41.41,13.21 L40.51,13.57 L39.67,14.04 L38.90,14.62 L38.41,15.08 L37.78,15.81 L37.26,16.62 L36.84,17.49 L36.59,18.22 L36.39,19.16 L36.32,20.12 L36.34,20.80 L36.59,22.22 L37.10,23.57 L37.37,24.52 L37.52,25.66 L37.50,26.43 L37.28,27.56 L36.85,28.63 L36.23,29.60 L35.42,30.43 L34.81,30.88 L34.14,31.26 L33.06,31.66 L31.92,31.83 L31.15,31.83 L30.39,31.73 L28.99,31.32 L26.64,30.29 L24.54,29.23 L22.74,28.20 L21.50,27.34 L20.48,26.86 L19.57,26.61 L18.64,26.52 L17.89,26.56 L16.96,26.74 L16.25,27.00 L15.58,27.34 L14.96,27.77 L14.40,28.28 L13.91,28.85 L13.51,29.49 L13.18,30.17 L12.95,30.88 L12.82,31.62 L12.78,32.38 L12.85,33.13 L13.00,33.86 L13.26,34.57 L13.60,35.24Z"/><path fill="#241F1B" transform="translate(2601.1 2019)" d="M461.0856038033962 -190.23828125Q461.0856038033962 -155.9702136553824 475.0198037456721 -136.25811648741364Q488.954003687948 -116.5460193194449 517.6842389926314 -113.5460193194449L610.9440355151892 -103.7038562335074Q637.4318213537335 -100.88885498046875 649.9277266506106 -86.46578622981906Q662.4236319474876 -72.04271747916937 662.4236319474876 -50.287838231772184Q662.4236319474876 0.0 603.2672539353371 0.0H154.5526690147817Q127.15752265974879 0.0 111.27690683118999 -12.993468644097447Q95.39629100263119 -25.986937288194895 95.39629100263119 -49.427852880209684Q95.39629100263119 -72.33697272092104 108.00538956187665 -85.17147886566818Q120.61448812112212 -98.00598501041532 146.40080641582608 -105.78595089539886L184.55028745532036 -114.4060046710074Q211.0855752825737 -121.092041015625 226.10028178431094 -139.3911126870662Q241.11498828604817 -157.6901843585074 241.11498828604817 -191.958251953125V-723.2069587595761Q241.11498828604817 -751.0790948607028 228.42333908379078 -766.5302619822323Q215.73168988153338 -781.9814291037619 180.83031675219536 -794.527450799942L148.52506092190742 -805.7684833854437Q112.38766840845346 -819.4534187205136 95.11793125979602 -834.2534400019795Q77.84819411113858 -849.0534612834454 77.84819411113858 -870.2654950395226Q77.84819411113858 -890.32140205428 91.47520945966244 -903.3679108433425Q105.10222480818629 -916.414419632405 129.06310127303004 -916.414419632405H306.4333536028862L245.5551056675613 -864.8660199418664V-910.3302077539265Q245.5551056675613 -932.8921715095639 228.89494763500988 -958.4189257044345Q212.23478960245848 -983.9456798993051 190.6785732526332 -1015.2731818556786Q169.12235690280795 -1046.600683812052 152.46219887025654 -1086.9656189531088Q135.80204083770514 -1127.3305540941656 135.80204083770514 -1179.5688797421753Q135.80204083770514 -1292.404283374548 222.80738379061222 -1367.6231255214661Q309.8127267435193 -1442.8419676683843 455.58351315930486 -1442.8419676683843Q547.7801779396832 -1442.8419676683843 611.4166584908962 -1413.5919048506767Q675.0531390421093 -1384.341842032969 708.3444317020476 -1334.5921472087502Q741.6357243619859 -1284.8424523845315 741.6357243619859 -1223.5220871679485Q741.6357243619859 -1166.9859519787133 713.4655864872038 -1137.3159086275846Q685.2954486124218 -1107.6458652764559 640.8061836697161 -1107.6458652764559Q591.5030184835196 -1107.6458652764559 561.9212607033551 -1137.9988632909954Q532.3395029231906 -1168.3518613055348 532.3395029231906 -1220.4518404565752V-1259.4852148033679Q532.3395029231906 -1305.2767222747207 507.9760954435915 -1329.3448369149119Q483.61268796399236 -1353.412951555103 436.08717289194465 -1353.412951555103Q378.6985454149544 -1353.412951555103 346.0176366176456 -1319.3107691965997Q313.3367278203368 -1285.2085868380964 313.3367278203368 -1223.7991499379277Q313.3367278203368 -1184.0797883979976 326.8368223439902 -1149.2411940861493Q340.3369168676436 -1114.402599774301 360.0455397851765 -1083.5262223239988Q379.75416270270944 -1052.6498448736966 399.46278562024236 -1024.8476820141077Q419.1714085377753 -997.0455191545188 432.67150306142867 -970.8795221634209Q446.17159758508205 -944.713525172323 446.17159758508205 -919.8321573138237V-866.0053632035851L408.3794187270105 -916.414419632405H653.7096811458468Q681.5316439718008 -916.414419632405 696.1061696801335 -905.1659449171275Q710.6806953884661 -893.9174702018499 710.6806953884661 -870.7504205442965Q710.6806953884661 -840.1775398142636 683.3205844014883 -819.9880860950798Q655.9604734145105 -799.798632375896 594.5071558021009 -799.798632375896H461.0856038033962ZM1237.6079125329852 -888.4065623059869V-190.23828125Q1237.6079125329852 -154.2502429522574 1249.397673966363 -137.6711419839412Q1261.187435399741 -121.092041015625 1282.2346215173602 -113.5460193194449L1316.7541000507772 -103.669921875Q1337.0183822773397 -94.59997796267271 1348.1225064713508 -82.19546449370682Q1359.2266306653619 -69.79095102474093 1359.2266306653619 -50.219969514757395Q1359.2266306653619 -26.38299560546875 1343.8065556082875 -13.191497802734375Q1328.386480551213 0.0 1300.0702526532114 0.0H954.1249104440212Q926.6958297304809 0.0 910.8321810811758 -13.191497802734375Q894.9685324318707 -26.38299560546875 894.9685324318707 -50.219969514757395Q894.9685324318707 -69.79095102474093 906.0556894466281 -82.19546449370682Q917.1428464613855 -94.59997796267271 937.4410630464554 -103.669921875L973.0105880312622 -113.5460193194449Q994.4538324661553 -121.092041015625 1006.0455647408962 -137.6711419839412Q1017.6372970156372 -154.2502429522574 1017.6372970156372 -190.23828125V-699.838332131505Q1017.6372970156372 -732.619588073343 1007.1310391295701 -746.4251276887953Q996.6247812435031 -760.2306673042476 976.9486936293542 -764.5645284205675L917.9226363711059 -767.9366011098027Q899.7998348250985 -774.024367287755 889.1605807393789 -785.2453755885363Q878.5213266536593 -796.4663838893175 878.5213266536593 -814.0144807808101Q878.5213266536593 -833.2825483754277 891.355920786038 -847.1785432808101Q904.1905149184167 -861.0745381861925 930.8792356215417 -870.3023190125823L1082.9438932426274 -923.3166071809828Q1113.6935341618955 -934.8454157747328 1137.1452828999609 -942.1670674830675Q1160.5970316380262 -949.4887191914022 1181.1846301592886 -949.4887191914022Q1207.6155970208347 -949.4887191914022 1222.61175477691 -932.9311606623232Q1237.6079125329852 -916.3736021332443 1237.6079125329852 -888.4065623059869ZM1101.5591157339513 -1127.4137905985117Q1033.4668210707605 -1127.4137905985117 991.1540428474545 -1164.721552055329Q948.8412646241486 -1202.0293135121465 948.8412646241486 -1261.6168894544244Q948.8412646241486 -1320.3283679522574 991.1540428474545 -1356.9775594789535Q1033.4668210707605 -1393.6267510056496 1101.5591157339513 -1393.6267510056496Q1171.2264800742269 -1393.6267510056496 1213.8017699103802 -1357.0000515282154Q1256.3770597465336 -1320.3733520507812 1256.3770597465336 -1261.6618735529482Q1256.3770597465336 -1202.0293135121465 1213.8017699103802 -1164.721552055329Q1171.2264800742269 -1127.4137905985117 1101.5591157339513 -1127.4137905985117ZM1795.2246692217886 -524.8653611987829Q1795.2246692217886 -664.3178314492106 1837.2962305657566 -760.9639185015112Q1879.3677919097245 -857.6100055538118 1948.7732502352446 -907.5169215928763Q2018.1787085607648 -957.4238376319408 2099.7257761731744 -957.4238376319408Q2186.665410026908 -957.4238376319408 2237.2160040121526 -904.9290608912706Q2287.766597997397 -852.4342841506004 2287.766597997397 -760.371226515621Q2287.766597997397 -688.8173828125 2257.695427440107 -652.988920930773Q2227.6242568828166 -617.160459049046 2177.9539053849876 -617.160459049046Q2128.4447429813445 -617.160459049046 2101.8945708945394 -643.1210309322923Q2075.3443988077343 -669.0816028155386 2075.3443988077343 -714.2406029626727V-747.3476574383676Q2075.3443988077343 -781.2910144366324 2057.6749957315624 -795.732607357204Q2040.0055926553905 -810.1742002777755 2010.9312447048724 -810.1742002777755Q1967.8766182400286 -810.1742002777755 1928.4149536658078 -778.4368650726974Q1888.953289091587 -746.6995298676193 1863.8003092259169 -683.9043333344162Q1838.6473293602467 -621.109136801213 1838.6473293602467 -528.5321714691818ZM1827.5693228654563 -883.2466501966119 1838.6473293602467 -662.3679270520806V-190.23828125Q1838.6473293602467 -155.9702136553824 1852.6040213517845 -136.6881091631949Q1866.5607133433223 -117.4060046710074 1895.2459645494819 -113.5460193194449L1975.6643700525165 -103.669921875Q2001.9824840985239 -100.39099358767271 2014.4274878576398 -86.13201963715255Q2026.8724916167557 -71.8730456866324 2026.8724916167557 -50.219969514757395Q2026.8724916167557 -26.45086432248354 2011.469383738935 -13.22543216124177Q1996.0662758611143 0.0 1967.614310529083 0.0H1559.1249104440212Q1531.7297640889883 0.0 1515.8491482604295 -13.191497802734375Q1499.9685324318707 -26.38299560546875 1499.9685324318707 -50.219969514757395Q1499.9685324318707 -69.79095102474093 1511.055689446628 -81.9804681558162Q1522.1428464613855 -94.16998528689146 1542.4410630464554 -103.669921875L1578.0105880312622 -113.5460193194449Q1599.4538324661553 -120.69598269835114 1611.0455647408962 -137.45614564605057Q1622.6372970156372 -154.21630859375 1622.6372970156372 -190.23828125V-699.838332131505Q1622.6372970156372 -732.619588073343 1612.1310391295701 -746.4251276887953Q1601.624781243503 -760.2306673042476 1581.9486936293542 -764.5645284205675L1522.922636371106 -767.9366011098027Q1504.7998348250985 -773.6283089704812 1494.160580739379 -785.0473464298993Q1483.5213266536593 -796.4663838893175 1483.5213266536593 -814.0144807808101Q1483.5213266536593 -833.2825483754277 1496.3728879652917 -847.1955104600638Q1509.2244492769241 -861.1084725446999 1535.8792356215417 -870.3023190125823L1688.249302469194 -923.4523446150124Q1715.8871915824711 -933.6572408229113 1737.9357690308243 -941.5729800071567Q1759.9843464791775 -949.4887191914022 1774.7895880490541 -949.4887191914022Q1797.6448760703206 -949.4887191914022 1811.102125102654 -934.4531022068113Q1824.5593741349876 -919.4174852222204 1827.5693228654563 -883.2466501966119ZM2741.573978174478 -888.4065623059869V-190.23828125Q2741.573978174478 -151.73815561458468 2752.520721435547 -134.2821021154523Q2763.467464696616 -116.8260486163199 2785.3407018072903 -109.2460925616324L2820.72016569227 -98.510009765625Q2858.066718555987 -82.05615828558803 2858.066718555987 -50.219969514757395Q2858.066718555987 0.0 2803.1763329431415 0.0H2458.090976085514Q2430.695829730481 0.0 2414.815213901922 -13.191497802734375Q2398.9345980733633 -26.38299560546875 2398.9345980733633 -50.219969514757395Q2398.9345980733633 -69.79095102474093 2410.0217550881207 -82.17849731445312Q2421.108912102878 -94.56604360416532 2441.407128687948 -103.669921875L2476.9766536727548 -113.5460193194449Q2498.419898107648 -121.0581066571176 2510.011630382389 -137.6372076254338Q2521.6033626571298 -154.21630859375 2521.6033626571298 -190.23828125V-699.838332131505Q2521.6033626571298 -732.619588073343 2511.0971047710627 -746.4251276887953Q2500.5908468849957 -760.2306673042476 2480.914759270847 -764.5645284205675L2421.8887020125985 -767.9366011098027Q2403.765900466591 -774.024367287755 2393.1266463808715 -785.2453755885363Q2382.487392295152 -796.4663838893175 2382.487392295152 -814.0144807808101Q2382.487392295152 -833.2825483754277 2395.3219864275306 -847.1785432808101Q2408.1565805599093 -861.0745381861925 2434.8453012630343 -870.3023190125823L2586.90995888412 -923.3166071809828Q2617.659599803388 -934.8454157747328 2641.1113485414535 -942.1670674830675Q2664.563097279519 -949.4887191914022 2685.1506958007812 -949.4887191914022Q2711.5816626623273 -949.4887191914022 2726.5778204184026 -932.9311606623232Q2741.573978174478 -916.3736021332443 2741.573978174478 -888.4065623059869ZM2708.6534566432238 -649.890281368047 2657.124093979597 -707.7763897664845 2709.978023778647 -756.7448825538158Q2820.83141971007 -860.7121605798602 2914.7716740164906 -909.0679991059005Q3008.7119283229113 -957.4238376319408 3093.453213367611 -957.4238376319408Q3218.937474615872 -957.4238376319408 3297.9083309229463 -877.7775680683553Q3376.8791872300208 -798.1312985047698 3376.8791872300208 -667.3979777395725V-190.23828125Q3376.8791872300208 -154.21630859375 3388.4709195047617 -137.43917846679688Q3400.0626517795026 -120.66204833984375 3421.5058962143958 -113.5460193194449L3456.0253747478127 -103.669921875Q3476.3235913328826 -93.7739269696176 3487.41074834764 -81.78243899717927Q3498.4979053623974 -69.79095102474093 3498.4979053623974 -50.219969514757395Q3498.4979053623974 -26.38299560546875 3483.077830305323 -13.191497802734375Q3467.6577552482486 0.0 3439.341527350247 0.0H3094.2561704926193Q3039.365784879774 0.0 3039.365784879774 -50.219969514757395Q3039.365784879774 -82.05615828558803 3076.712337743491 -98.510009765625L3113.14184807986 -109.2460925616324Q3135.0150851905346 -116.8260486163199 3145.9618284516037 -134.2821021154523Q3156.9085717126727 -151.73815561458468 3156.9085717126727 -190.23828125V-612.5671049691737Q3156.9085717126727 -703.2841341011226 3111.0673289075494 -751.1956888120621Q3065.226086102426 -799.1072435230017 2987.8899643085897 -799.1072435230017Q2935.979489810765 -799.1072435230017 2876.6805665679276 -773.3100076597184Q2817.3816433250904 -747.5127717964351 2752.9503150060773 -689.4638168476522Z"/></svg>
